<svg width="16" height="15" viewBox="0 0 16 15" fill="none" xmlns="http://www.w3.org/2000/svg">
<path fill-rule="evenodd" clip-rule="evenodd" d="M13.8333 1.58301H2.16667C1.93655 1.58301 1.75 1.76956 1.75 1.99967V12.833C1.75 13.0631 1.93655 13.2497 2.16667 13.2497H13.8333C14.0634 13.2497 14.25 13.0631 14.25 12.833V1.99967C14.25 1.76956 14.0634 1.58301 13.8333 1.58301ZM2.16667 0.333008C1.24619 0.333008 0.5 1.0792 0.5 1.99967V12.833C0.5 13.7535 1.24619 14.4997 2.16667 14.4997H13.8333C14.7538 14.4997 15.5 13.7535 15.5 12.833V1.99967C15.5 1.0792 14.7538 0.333008 13.8333 0.333008H2.16667Z" fill="#707070"/>
</svg>
