<svg width="18" height="14" viewBox="0 0 18 14" fill="none" xmlns="http://www.w3.org/2000/svg">
<path fill-rule="evenodd" clip-rule="evenodd" d="M12.4938 1.99967C13.1107 1.99967 13.6493 1.66451 13.9375 1.16634H15.8271C16.2874 1.16634 16.6605 1.53944 16.6605 1.99967V3.77136C15.2228 4.14139 14.1605 5.44651 14.1605 6.99967C14.1605 8.55284 15.2228 9.85792 16.6605 10.228V11.9997C16.6605 12.4599 16.2874 12.833 15.8271 12.833H13.9375C13.6493 12.3348 13.1107 11.9997 12.4938 11.9997C11.8769 11.9997 11.3383 12.3348 11.0501 12.833H2.49382C2.03358 12.833 1.66048 12.4599 1.66048 11.9997V10.228C3.09817 9.85792 4.16048 8.55284 4.16048 6.99967C4.16048 5.44651 3.09817 4.14139 1.66048 3.77136V1.99967C1.66048 1.53944 2.03358 1.16634 2.49382 1.16634H11.0501C11.3383 1.66451 11.8769 1.99967 12.4938 1.99967ZM14.9938 6.99967C14.9938 5.61892 16.1131 4.49967 17.4938 4.49967V1.99967C17.4938 1.0792 16.7476 0.333008 15.8271 0.333008H13.3271C13.3271 0.793241 12.9541 1.16634 12.4938 1.16634C12.0336 1.16634 11.6605 0.793241 11.6605 0.333008H2.49382C1.57334 0.333008 0.827148 1.0792 0.827148 1.99967V4.49967C2.20786 4.49967 3.32715 5.61892 3.32715 6.99967C3.32715 8.38042 2.20786 9.49967 0.827148 9.49967V11.9997C0.827148 12.9202 1.57334 13.6663 2.49382 13.6663H11.6605C11.6605 13.2061 12.0336 12.833 12.4938 12.833C12.9541 12.833 13.3271 13.2061 13.3271 13.6663H15.8271C16.7476 13.6663 17.4938 12.9202 17.4938 11.9997V9.49967C16.1131 9.49967 14.9938 8.38042 14.9938 6.99967ZM12.4938 4.49967C12.9541 4.49967 13.3271 4.12658 13.3271 3.66634C13.3271 3.20611 12.9541 2.83301 12.4938 2.83301C12.0336 2.83301 11.6605 3.20611 11.6605 3.66634C11.6605 4.12658 12.0336 4.49967 12.4938 4.49967ZM12.4938 7.83301C12.9541 7.83301 13.3271 7.45992 13.3271 6.99967C13.3271 6.53942 12.9541 6.16634 12.4938 6.16634C12.0336 6.16634 11.6605 6.53942 11.6605 6.99967C11.6605 7.45992 12.0336 7.83301 12.4938 7.83301ZM13.3271 10.333C13.3271 10.7933 12.9541 11.1663 12.4938 11.1663C12.0336 11.1663 11.6605 10.7933 11.6605 10.333C11.6605 9.87276 12.0336 9.49967 12.4938 9.49967C12.9541 9.49967 13.3271 9.87276 13.3271 10.333Z" fill="#707070"/>
</svg>
